# xmcd CD database file
#
# Track frame offsets:
#	150
#	4650
#	29517
#	74140
#	77052
#	108112
#	146535
#	159932
#	209420
#	241487
#	274197
#
# Disc length: 3966 seconds
#
# Revision: 1
# Processed by: cddbd v1.4PL0 Copyright (c) Steve Scherf et al.
# Submitted via: CDex 1.50
#
DISCID=960f7c0b
DTITLE=Us3 - The Ultimate Hand On The Torch (Bonus CD)
DYEAR=2003
DGENRE=Jazz
TTITLE0=Pee Wee Marquette: Announcement
TTITLE1=Herbie Hancock: Cantaloupe Island
TTITLE2=Reuben Wilson: Ronnie's Bonnie
TTITLE3=Art Blakey: Announcement
TTITLE4=Lou Donaldson: Cool Blues
TTITLE5=Art Blakey and Jazz Messengers: Crisis
TTITLE6=Thelonious Monk: Straight No Chaser
TTITLE7=Grant Green: Sookie Sookie
TTITLE8=Bobby Hutcherson: Goin' Down South
TTITLE9=Horace Silver: Song For My Father
TTITLE10=Donald Byrd: Steppin' Into Tomorrow
EXTD=YEAR: 2003
EXTT0=
EXTT1=
EXTT2=
EXTT3=
EXTT4=
EXTT5=
EXTT6=
EXTT7=
EXTT8=
EXTT9=
EXTT10=
PLAYORDER=
